<svg width="699" height="607" viewBox="0 0 699 607" fill="none" xmlns="http://www.w3.org/2000/svg">
<path d="M3.02973 1.78375C1.64792 2.47378 0.496412 4.08386 0.266111 5.46392C-0.0793408 7.76403 27.9023 58.9415 32.0477 63.5417C33.6598 65.3818 38.381 65.6118 92.6169 65.8418L151.459 66.1868L247.725 232.37C300.694 323.684 345.142 399.128 346.524 400.048C348.597 401.543 349.288 401.543 351.36 400.048C352.742 399.128 397.19 323.684 450.16 232.37L546.425 66.1868L605.843 65.8418C660.655 65.6118 665.376 65.3818 666.988 63.5417C670.212 59.9765 699 8.10905 699 6.03895C699 4.8889 698.424 3.39382 697.618 2.58879C696.582 1.55374 668.831 1.20872 579.704 1.20872H463.056L460.293 4.8889C458.796 6.95899 433.578 50.201 404.214 100.918C374.966 151.751 350.554 193.268 350.094 193.268C349.633 193.268 324.991 151.751 295.397 100.918C265.688 50.201 240.24 6.95899 238.743 5.0039L235.979 1.20872L120.714 0.97871C43.6779 0.748699 4.52668 0.97871 3.02973 1.78375ZM232.179 13.2843C233.216 14.8944 259.125 59.0565 289.755 111.384C320.27 163.711 346.409 207.183 347.676 208.104C349.748 209.369 350.439 209.369 352.512 208.104C353.778 207.183 379.572 163.711 409.972 111.269C440.257 58.9415 465.82 14.8944 466.856 13.2843L468.699 10.4092H576.94C636.473 10.4092 685.182 10.7542 685.182 11.2142C685.182 12.0192 666.873 45.1408 662.497 52.0411L659.849 56.4113H600.777C555.062 56.4113 541.359 56.7564 540.207 57.7914C539.516 58.5964 496.335 132.66 444.287 222.249C392.354 311.953 349.403 385.327 348.942 385.327C348.482 385.327 305.415 311.838 253.482 222.134C201.434 132.43 158.253 58.3664 157.332 57.6764C156.295 56.8714 137.41 56.2963 97.2229 56.1813L38.6113 55.8363L26.2901 33.9853C19.3811 21.9097 13.8539 11.7892 13.8539 11.2142C13.8539 10.7542 62.5626 10.4092 122.095 10.4092H230.337L232.179 13.2843Z M57.1506 94.9382C55.7688 95.6282 54.6173 97.2383 54.387 98.5034C54.1567 100.113 80.9868 147.611 126.817 226.734C246.343 433.399 295.973 519.308 321.076 562.895C334.203 585.551 346.063 604.872 347.56 605.792C349.863 607.403 350.324 607.403 352.742 605.792C355.391 604.067 643.958 102.874 644.649 98.7334C645.57 93.4431 644.419 93.2131 609.758 93.2131C580.28 93.2131 577.171 93.4431 575.443 95.1682C574.522 96.3183 537.098 160.376 492.305 237.545C447.511 314.714 397.075 401.543 380.378 430.409C363.566 459.39 349.403 483.082 348.942 483.082C348.482 483.082 336.967 463.761 323.264 440.3C309.676 416.723 259.585 330.124 211.913 247.895C164.241 165.667 124.514 97.4683 123.592 96.4333C121.98 94.5932 118.411 94.3632 90.6594 94.1332C70.9687 93.9032 58.6475 94.2482 57.1506 94.9382ZM630.716 104.024C630.37 104.944 580.856 191.198 520.747 295.853C460.638 400.393 397.881 509.648 381.184 538.629C364.603 567.611 350.439 591.072 349.863 590.957C348.942 590.612 69.8172 108.854 68.3202 105.059C67.8596 103.909 72.9262 103.564 92.0412 103.564H116.338L118.296 106.669C119.447 108.394 170.689 196.718 232.295 302.983C293.785 409.363 345.257 496.997 346.524 497.802C351.476 501.137 336.276 526.439 522.589 205.343C554.486 150.256 581.086 104.599 581.777 103.794C582.698 102.759 589.262 102.414 607.11 102.414C627.492 102.414 631.176 102.644 630.716 104.024Z" fill="url(#paint0_linear_4383_174)"/>
<defs>
<linearGradient id="paint0_linear_4383_174" x1="293.117" y1="81.0514" x2="309.272" y2="638.709" gradientUnits="userSpaceOnUse">
<stop stop-color="#FF3A5E"/>
<stop offset="1" stop-color="#FF3A5E" stop-opacity="0"/>
</linearGradient>
</defs>
</svg>
    