<svg width="175" height="151" viewBox="0 0 175 151" version="1.0" xmlns="http://www.w3.org/2000/svg">

<g transform="translate(0,151) scale(0.1,-0.1)" fill="#FF3A5E" stroke="none">
<path
d="M35 1498 c14 -24 31 -53 37 -65 11 -22 16 -23 167 -23 l156 -1 64 -112 c197 -348 436 -755 440 -751 2 2 116 197 251 432 l247 427
157 5 157 5 35 63 35 62 -293 0 -294 0 -145 -252 c-80 -139 -149 -252 -154 -251 -5 0 -73 114 -153 252 l-144 251 -295 0 -294 0 26
-42z M161 1279 c6 -12 48 -86 94 -163 45 -78 207 -358 360 -624 153 -265 282 -479 286 -475 6 8 703 1214 728 1261 12 22 11 22 -63
22 l-74 0 -286 -494 c-157 -272 -289 -502 -292 -511 -4 -9 -11 -14 -17 -12 -6 2 -142 230 -302 508 l-291 504 -78 3 c-77 3 -77 3 -65
-19z" />
</g>
</svg>