<svg  width="11rem" class="w-[9rem] mdx:w-[11rem]" viewBox="0 0 173 35" fill="none" xmlns="http://www.w3.org/2000/svg">
    
<mask id="mask0_4_16" maskUnits="userSpaceOnUse" x="1" y="4" width="165" height="45" style="mask-type: alpha;">
<path d="M17.96 31.76L0.0400002 23.32V18.32L17.96 9.88V14.48L6.36 19.84C5.82667 20.08 5.29333 20.2933 4.76 20.48C4.25333 20.64 3.85333 20.7467 3.56 20.8C3.85333 20.8533 4.26667 20.96 4.8 21.12C5.33333 21.28 5.85333 21.48 6.36 21.72L17.96 27.08V31.76ZM31.3844 34L21.4644 6.56H27.9044L33.8244 24.08C33.931 24.3733 34.051 24.7333 34.1844 25.16C34.3177 25.56 34.451 25.96 34.5844 26.36C34.7177 26.76 34.8244 27.12 34.9044 27.44H35.1444C35.251 27.1467 35.3577 26.8133 35.4644 26.44C35.5977 26.04 35.7177 25.64 35.8244 25.24C35.9577 24.84 36.0777 24.4667 36.1844 24.12L42.1044 6.56H48.3044L38.3444 34H31.3844ZM51.3178 9.88V5.08H56.8778V9.88H51.3178ZM51.3178 34V12.96H56.8778V34H51.3178ZM69.2219 34V11.56H60.4219V6.56H84.0619V11.56H75.2219V34H69.2219ZM99.9669 34.48C97.4602 34.48 95.3002 34.08 93.4869 33.28C91.7002 32.48 90.3269 31.28 89.3669 29.68C88.4069 28.0533 87.9269 26.04 87.9269 23.64V6.56H93.9269V23.48C93.9269 25.4533 94.4469 26.9733 95.4869 28.04C96.5269 29.08 98.0202 29.6 99.9669 29.6C101.914 29.6 103.407 29.08 104.447 28.04C105.514 26.9733 106.047 25.4533 106.047 23.48V6.56H112.047V23.64C112.047 26.04 111.567 28.0533 110.607 29.68C109.647 31.28 108.26 32.48 106.447 33.28C104.66 34.08 102.5 34.48 99.9669 34.48ZM127.232 38.4L141.192 0.799998H146.432L143.832 7.8L166.473 18.32V23.32L148.553 31.76V27.08L160.153 21.72C160.713 21.48 161.286 21.2933 161.873 21.16C162.459 21 162.926 20.9067 163.273 20.88C162.926 20.8267 162.446 20.7333 161.833 20.6C161.246 20.44 160.686 20.24 160.153 20L142.352 11.72L132.432 38.4H127.232Z" fill="#fff"/>
</mask>
<g mask="url(#mask0_4_16)">
<rect width="173" height="41" fill="#FC0A8E"></rect>
<g filter="url(#filter0_f_4_16)">
<rect x="-72.5404" y="-116" width="210" height="190" rx="128" fill="#D10C17"></rect>
</g>
<g filter="url(#filter1_f_4_16)">
<rect x="433.254" width="325" height="300" rx="157.5" fill="#FF502D"></rect>
</g>
</g>
<defs>
<filter id="filter0_f_4_16" x="-102.54" y="-96" width="525.698" height="496"
filterUnits="userSpaceOnUse" color-interpolation-filters="sRGB">
<feFlood flood-opacity="0" result="BackgroundImageFix"></feFlood>
<feBlend mode="normal" in="SourceGraphic" in2="BackgroundImageFix" result="shape"></feBlend>
<feGaussianBlur stdDeviation="60" result="effect1_foregroundBlur_4_16"></feGaussianBlur>
</filter>
<filter id="filter1_f_4_16" x="303.254" y="-120" width="591.116" height="555"
filterUnits="userSpaceOnUse" color-interpolation-filters="sRGB">
<feFlood flood-opacity="0" result="BackgroundImageFix"></feFlood>
<feBlend mode="normal" in="SourceGraphic" in2="BackgroundImageFix" result="shape"></feBlend>
<feGaussianBlur stdDeviation="60" result="effect1_foregroundBlur_4_16"></feGaussianBlur>
</filter>
</defs>
</svg>
    