<svg width="173" height="35" viewBox="0 0 173 35" fill="none" xmlns="http://www.w3.org/2000/svg">
    
<mask id="mask0_4_16" maskUnits="userSpaceOnUse" x="1" y="4" width="150" height="45" style="mask-type: alpha;">
<path d="M16.864 27.984L0.736 20.388V15.888L16.864 8.292V12.432L6.424 17.256C5.944 17.472 5.464 17.664 4.984 17.832C4.528 17.976 
4.168 18.072 3.904 18.12C4.168 18.168 4.54 18.264 5.02 18.408C5.5 18.552 5.968 18.732 6.424 18.948L16.864 23.772V27.984ZM28.9459 
30L20.0179 5.304H25.8139L31.1419 21.072C31.2379 21.336 31.3459 21.66 31.4659 22.044C31.5859 22.404 31.7059 22.764 31.8259 23.124C
31.9459 23.484 32.0419 23.808 32.1139 24.096H32.3299C32.4259 23.832 32.5219 23.532 32.6179 23.196C32.7379 22.836 32.8459 22.476 
32.9419 22.116C33.0619 21.756 33.1699 21.42 33.2659 21.108L38.5939 5.304H44.1739L35.2099 30H28.9459ZM46.886 8.292V3.972H51.89V8.2
92H46.886ZM46.886 30V11.064H51.89V30H46.886ZM62.9997 30V9.804H55.0797V5.304H76.3557V9.804H68.3997V30H62.9997ZM90.6702 30.432C88.4
142 30.432 86.4702 30.072 84.8382 29.352C83.2302 28.632 81.9942 27.552 81.1302 26.112C80.2662 24.648 79.8342 22.836 79.8342 20.67
6V5.304H85.2342V20.532C85.2342 22.308 85.7022 23.676 86.6382 24.636C87.5742 25.572 88.9182 26.04 90.6702 26.04C92.4222 26.04 93.7
662 25.572 94.7022 24.636C95.6622 23.676 96.1422 22.308 96.1422 20.532V5.304H101.542V20.676C101.542 22.836 101.11 24.648 100.246
26.112C99.3822 27.552 98.1342 28.632 96.5022 29.352C94.8942 30.072 92.9502 30.432 90.6702 30.432ZM115.209 33.96L127.773 0.119998H
132.489L130.149 6.42L150.525 15.888V20.388L134.397 27.984V23.772L144.837 18.948C145.341 18.732 145.857 18.564 146.385 18.444C14
6.913 18.3 147.333 18.216 147.645 18.192C147.333 18.144 146.901 18.06 146.349 17.94C145.821 17.796 145.317 17.616 144.837 17.4L12
8.817 9.948L119.889 33.96H115.209Z" fill="#fff"/>
</mask>
<g mask="url(#mask0_4_16)">
<rect width="173" height="41" fill="#FC0A8E"></rect>
<g filter="url(#filter0_f_4_16)">
<rect x="-72.5404" y="-116" width="210" height="140" rx="128" fill="#D10C17"></rect>
</g>
<g filter="url(#filter1_f_4_16)">
<rect x="433.254" width="325" height="300" rx="157.5" fill="#FF502D"></rect>
</g>
</g>
<defs>
<filter id="filter0_f_4_16" x="-102.54" y="-96" width="525.698" height="496"
filterUnits="userSpaceOnUse" color-interpolation-filters="sRGB">
<feFlood flood-opacity="0" result="BackgroundImageFix"></feFlood>
<feBlend mode="normal" in="SourceGraphic" in2="BackgroundImageFix" result="shape"></feBlend>
<feGaussianBlur stdDeviation="60" result="effect1_foregroundBlur_4_16"></feGaussianBlur>
</filter>
<filter id="filter1_f_4_16" x="303.254" y="-120" width="591.116" height="555"
filterUnits="userSpaceOnUse" color-interpolation-filters="sRGB">
<feFlood flood-opacity="0" result="BackgroundImageFix"></feFlood>
<feBlend mode="normal" in="SourceGraphic" in2="BackgroundImageFix" result="shape"></feBlend>
<feGaussianBlur stdDeviation="60" result="effect1_foregroundBlur_4_16"></feGaussianBlur>
</filter>
</defs>
</svg>
    